<?xml version="1.0" encoding="utf-8"?>
<!-- Generator: Adobe Illustrator 23.0.0, SVG Export Plug-In . SVG Version: 6.00 Build 0)  -->
<svg version="1.1" id="Слой_1" xmlns="http://www.w3.org/2000/svg" xmlns:xlink="http://www.w3.org/1999/xlink" x="0px" y="0px"
	 viewBox="0 0 36 36" style="enable-background:new 0 0 36 36;" xml:space="preserve">
<style type="text/css">
	.st0{fill:#FFFFFF;}
</style>
<path id="Arrow_Right_2_" class="st0" d="M1.2,33.1C1.2,33.1,1.2,33.1,1.2,33.1c0.6,0,1-0.5,1-1c0-0.4,1.2-10.5,16.9-10.5l0,6.5
	c0,0.4,0.3,0.8,0.6,1c0.4,0.2,0.9,0.1,1.2-0.1l14.6-12.1c0.3-0.2,0.4-0.5,0.4-0.9c0-0.3-0.2-0.7-0.4-0.9L21,3.1
	c-0.3-0.3-0.8-0.3-1.2-0.1c-0.4,0.2-0.6,0.6-0.6,1l0,6.3c-6.5,0.2-11.6,2.3-14.9,6.2c-5.3,6.3-4.1,15.3-4.1,15.7
	C0.2,32.7,0.6,33.1,1.2,33.1z M20.3,19.3C20.3,19.3,20.3,19.3,20.3,19.3c-11.3,0-15.6,3.8-18,7.2c0.4-2.7,1.4-5.9,3.7-8.6
	c3-3.5,7.9-5.4,14.3-5.4c0.6,0,1.1-0.5,1.1-1.1V6.4L33.1,16l-11.7,9.7v-5.2c0-0.3-0.1-0.6-0.3-0.8C20.9,19.4,20.6,19.3,20.3,19.3z"
	/>
</svg>
